# xmcd
#
# Track frame offsets:
#	150
#	20166
#	38366
#	52429
#	67552
#	84568
#	99707
#	114942
#	129047
#	147151
#	161839
#	179849
#	191085
#	207261
#	224107
#	241199
#	258025
#	273874
#
# Disc length: 3887
#
# Revision: 3
# Processed by: cddbd v1.5.1PL0 Copyright (c) Steve Scherf et al.
# Submitted via: audiograbber 1.83.01
# Normalized: r2:DSETVAR1
#
DISCID=040f2d12
DTITLE=Various Artist - CDX 361
DYEAR=2005
DGENRE=Country
TTITLE0=Jessi Alexander - Canyon Prayer
TTITLE1=Lonestar - Class Reunion (that used to be us)
TTITLE2=The Wrights - Down This Road
TTITLE3=Buddy Jewell - If She Were Any Other Woman
TTITLE4=Dierks Bentley - Lot Of Leavin' Left To Do
TTITLE5=Jo Dee Messina - My Give A Damn's Busted
TTITLE6=Jimmy Buffett - Piece Of Work
TTITLE7=Con Hunley - Only Time Will Tell
TTITLE8=Oak Ridge Boys - Someplace Green
TTITLE9=Sharrell Todd - Diamond Won't Cut It
TTITLE10=Jason Bowland and the Stragglers - If You Want To Hear A Love Song
TTITLE11=K Wilder - Dime Box Texas
TTITLE12=Eddie Bush - It's Hard To Stop A Train
TTITLE13=Teresa Wade - I'm All Over That
TTITLE14=Joey Martin - Red
TTITLE15=Gary Campbell - You're The Reason Why
TTITLE16=Fanny Grace - Sweet Tea
TTITLE17=Robbie Wooten - Tough In Santa Fe
EXTD=
EXTT0=
EXTT1=
EXTT2=
EXTT3=
EXTT4=
EXTT5=
EXTT6=
EXTT7=
EXTT8=
EXTT9=
EXTT10=
EXTT11=
EXTT12=
EXTT13=
EXTT14=
EXTT15=
EXTT16=
EXTT17=
PLAYORDER=
